<svg xmlns="http://www.w3.org/2000/svg" viewBox="0 0 19 15" fill="none" class="-mt-0.5 ml-0.5 inline-block text-token-link hover:text-token-link-hover" width="25" height="25">
  <path d="M4.42 0.75H2.8625H2.75C1.64543 0.75 0.75 1.64543 0.75 2.75V11.65C0.75 12.7546 1.64543 13.65 2.75 13.65H2.8625C2.8625 13.65 2.8625 13.65 2.8625 13.65C2.8625 13.65 4.00751 13.65 4.42 13.65M13.98 13.65H15.5375H15.65C16.7546 13.65 17.65 12.7546 17.65 11.65V2.75C17.65 1.64543 16.7546 0.75 15.65 0.75H15.5375H13.98" stroke="currentColor" stroke-width="1.5" stroke-linecap="round" stroke-linejoin="round"></path>
  <path d="M5.55283 4.21963C5.25993 3.92674 4.78506 3.92674 4.49217 4.21963C4.19927 4.51252 4.19927 4.9874 4.49217 5.28029L6.36184 7.14996L4.49217 9.01963C4.19927 9.31252 4.19927 9.7874 4.49217 10.0803C4.78506 10.3732 5.25993 10.3732 5.55283 10.0803L7.95283 7.68029C8.24572 7.3874 8.24572 6.91252 7.95283 6.61963L5.55283 4.21963Z" fill="currentColor" stroke="currentColor" stroke-width="0.2" stroke-linecap="round" stroke-linejoin="round"></path>
  <path d="M9.77753 8.75003C9.3357 8.75003 8.97753 9.10821 8.97753 9.55003C8.97753 9.99186 9.3357 10.35 9.77753 10.35H13.2775C13.7194 10.35 14.0775 9.99186 14.0775 9.55003C14.0775 9.10821 13.7194 8.75003 13.2775 8.75003H9.77753Z" fill="currentColor" stroke="currentColor" stroke-width="0.1"></path>
</svg>